# xmcd CD database file
#
# Track frame offsets:
#	150
#	5932
#	25672
#	40800
#	60022
#	74162
#	92527
#	112762
#	130757
#	150277
#	164985
#	180672
#
# Disc length: 2661 seconds
#
# Revision: 1
# Processed by: cddbd v1.5.1PL0 Copyright (c) Steve Scherf et al.
# Submitted via: CDex 1.51
#
DISCID=920a630c
DTITLE=Go!Go!7188 - ごんぶとツアー 日本武道館 (完全版 - Disc1)
DYEAR=2005
DGENRE=Rock/Pop
TTITLE0=オープニングSE
TTITLE1=赤い月に吠える夜
TTITLE2=うましかもの
TTITLE3=バイオレットの空
TTITLE4=千日紅
TTITLE5=大人のくすり
TTITLE6=恋の毒薬
TTITLE7=行方不明
TTITLE8=ななし
TTITLE9=サンダーガール
TTITLE10=青い亀裂
TTITLE11=C7
EXTD=YEAR: 2005
EXTT0=
EXTT1=
EXTT2=
EXTT3=
EXTT4=
EXTT5=
EXTT6=
EXTT7=
EXTT8=
EXTT9=
EXTT10=
EXTT11=
PLAYORDER=
